<?xml version="1.0" encoding="UTF-8"?>
<svg width="304px" height="251px" viewBox="0 0 304 251" version="1.1" xmlns="http://www.w3.org/2000/svg" xmlns:xlink="http://www.w3.org/1999/xlink">
    <!-- Generator: Sketch 60.1 (88133) - https://sketch.com -->
    <title>Runrun-logo</title>
    <desc>Created with Sketch.</desc>
    <defs>
        <polygon id="path-1" points="0 0.154202493 90.45676 0.154202493 90.45676 115.251935 0 115.251935"></polygon>
        <polygon id="path-3" points="0.173865462 0.154672117 87.7058029 0.154672117 87.7058029 115.25264 0.173865462 115.25264"></polygon>
        <polygon id="path-5" points="0.0591034926 0.806345596 90.5146894 0.806345596 90.5146894 115.901965 0.0591034926 115.901965"></polygon>
    </defs>
    <g id="Page-1" stroke="none" stroke-width="1" fill="none" fill-rule="evenodd">
        <g id="Apple-iPhone-11-Pro-Max-Midnight-Green" transform="translate(-70.000000, -97.000000)">
            <g id="Screen" transform="translate(26.733333, 24.533333)">
                <g id="Group-10" transform="translate(-1.000000, 0.000000)">
                    <g id="Runrun-logo" transform="translate(45.000000, 72.312500)">
                        <g id="Group-3" transform="translate(0.000000, 0.045658)">
                            <g id="Fill-1-Clipped">
                                <mask id="mask-2" fill="white">
                                    <use xlink:href="#path-1"></use>
                                </mask>
                                <g id="path-1"></g>
                                <path d="M27.8980548,24.5439261 L27.8980548,52.7754144 L49.6956849,52.7754144 C58.883892,52.7754144 62.2229235,45.425788 62.2229235,38.5763118 C62.2229235,31.7268357 58.883892,24.5439261 49.6956849,24.5439261 L27.8980548,24.5439261 Z M3.90798505e-13,115.251935 L3.90798505e-13,0.15396768 L51.0317672,0.15396768 C78.09389,0.15396768 90.45676,19.3639657 90.45676,38.5763118 C90.45676,54.9450805 81.6019864,70.8160469 62.8921387,75.4935088 L61.2719336,75.6226556 L89.2451283,115.251935 L56.8386764,115.251935 L32.1152845,76.8295911 L27.8980548,76.8295911 L27.8980548,115.251935 L3.90798505e-13,115.251935 Z" id="Fill-1" fill="#FFFFFF" fill-rule="nonzero" mask="url(#mask-2)"></path>
                            </g>
                        </g>
                        <path d="M105.907647,73.3680919 L105.907647,0.20056485 L133.972418,0.20056485 L133.972418,73.3680919 C133.972418,83.7256645 142.658127,90.5751405 151.346184,90.5751405 C160.031893,90.5751405 168.717602,83.7256645 168.717602,73.3680919 L168.717602,0.20056485 L196.782373,0.20056485 L196.782373,73.3680919 C196.782373,99.9300643 175.233644,116.801331 151.346184,116.801331 C127.456376,116.801331 105.907647,99.9300643 105.907647,73.3680919" id="Fill-4" fill="#FFFFFF" fill-rule="nonzero"></path>
                        <g id="Group-8" transform="translate(214.983748, 0.045658)">
                            <g id="Fill-6-Clipped">
                                <mask id="mask-4" fill="white">
                                    <use xlink:href="#path-3"></use>
                                </mask>
                                <g id="path-3"></g>
                                <polygon id="Fill-6" fill="#FFFFFF" fill-rule="nonzero" mask="url(#mask-4)" points="87.7072118 0.154672117 87.7072118 115.25264 63.3196015 115.25264 28.0719203 52.4426853 28.0719203 115.25264 0.173865462 115.25264 0.173865462 0.154672117 25.3974077 0.154672117 59.809157 62.1310427 59.809157 0.154672117"></polygon>
                            </g>
                        </g>
                        <path d="M151.345245,250.450883 C127.457785,250.450883 105.906708,233.577268 105.906708,207.017644 L105.906708,133.850116 L133.973827,133.850116 L133.973827,207.017644 C133.973827,217.375217 142.659536,224.224692 151.345245,224.224692 C160.030954,224.224692 168.719011,217.375217 168.719011,207.017644 L168.719011,133.850116 L196.783782,133.850116 L196.783782,207.017644 C196.783782,233.577268 175.232704,250.450883 151.345245,250.450883" id="Fill-9" fill="#FFFFFF" fill-rule="nonzero"></path>
                        <polygon id="Fill-11" fill="#FFFFFF" fill-rule="nonzero" points="27.8968807 133.850821 27.8968807 195.824844 62.30863 133.850821 87.5345203 133.850821 87.5345203 248.948789 59.6364656 248.948789 59.6364656 186.136486 24.3887843 248.948789 0.00117406173 248.948789 0.00117406173 133.850821"></polygon>
                        <g id="Group-15" transform="translate(212.174862, 133.044945)">
                            <g id="Fill-13-Clipped">
                                <mask id="mask-6" fill="white">
                                    <use xlink:href="#path-5"></use>
                                </mask>
                                <g id="path-5"></g>
                                <path d="M40.8201787,25.1939559 C31.6319715,25.1939559 28.2929399,32.3792136 28.2929399,39.2263416 C28.2929399,46.0758178 31.6319715,53.4254442 40.8201787,53.4254442 L62.6178087,53.4254442 L62.6178087,25.1939559 L40.8201787,25.1939559 Z M62.6178087,115.901965 L62.6178087,77.481969 L58.4005789,77.481969 L33.6771871,115.901965 L1.2707352,115.901965 L29.24393,76.2726855 L27.6237247,76.1435387 C8.91387705,71.4660766 0.0591034926,55.5974584 0.0591034926,39.2263416 C0.0591034926,20.0163436 12.4219735,0.806345596 39.4840964,0.806345596 L90.5158634,0.806345596 L90.5158634,115.901965 L62.6178087,115.901965 Z" id="Fill-13" fill="#FFFFFF" fill-rule="nonzero" mask="url(#mask-6)"></path>
                            </g>
                        </g>
                    </g>
                </g>
            </g>
        </g>
    </g>
</svg>